<?xml version="1.0" encoding="UTF-8"?>
<svg id="Layer_1" data-name="Layer 1" xmlns="http://www.w3.org/2000/svg" version="1.1" viewBox="0 0 1366 455.1">
  <defs>
    <style>
      .cls-1 {
        fill: #fff;
        stroke-width: 0px;
      }
    </style>
  </defs>
  <g>
    <path class="cls-1" d="M1200.6,442.8h-76.1V138.4c0-16-1.6-28.7-4.9-38.4-3.3-9.6-10.2-14.4-20.9-14.4s-17,3-25.2,8.9c-8.2,5.9-15.8,13-22.7,21.2-7,8.2-13.2,16.6-18.7,25.2-5.5,8.6-10.1,15.8-13.8,21.5l-181.6,280.4h-90.8l181.6-280.4c15.5-24.1,30.2-45.7,43.9-64.7,13.7-19,27.6-35.1,41.7-48.2,14.1-13.1,29.2-23,45.4-29.8,16.2-6.8,34.7-10.1,55.5-10.1s46.6,11.3,62.6,33.7c16,22.5,23.9,54.2,23.9,95.1v304.4h0Z"/>
    <path class="cls-1" d="M465.8,13.2h76.1v303.8c0,16.4,1.6,29.2,4.9,38.7,3.3,9.4,10.2,14.1,20.9,14.1s17-2.9,25.2-8.6c8.2-5.7,15.7-12.7,22.7-20.9,7-8.2,13.2-16.7,18.7-25.5,5.5-8.8,10.1-16,13.8-21.8L829.7,13.2h90.8l-181.6,279.8c-15.5,24.1-30.2,45.7-43.9,64.7s-27.6,35.1-41.7,48.2c-14.1,13.1-29.2,23-45.4,29.8-16.2,6.8-34.7,10.1-55.5,10.1s-46.6-11.2-62.6-33.8c-16-22.5-23.9-54.2-23.9-95.1V13.2h0Z"/>
    <path class="cls-1" d="M362.4,12v76.1h-226.4c-11.1,0-20.2,2.4-27.6,7.4-7.4,4.9-12.9,11.2-16.6,18.7s-5.5,15.8-5.5,24.5,1.8,17,5.5,24.6c3.7,7.6,9.2,13.8,16.6,18.7s16.6,7.4,27.6,7.4h141.1c17.6,0,34.1,3.3,49.4,9.8,15.3,6.6,28.7,15.6,40.2,27,11.5,11.5,20.6,24.9,27.3,40.2,6.8,15.3,10.1,31.8,10.1,49.4s-3.4,34.1-10.1,49.4-15.9,28.8-27.3,40.2-24.9,20.6-40.2,27.3-31.8,10.1-49.4,10.1H39v-76.1h238.1c11,0,20.3-2.5,27.9-7.4,7.6-4.9,13.2-11.1,16.9-18.7,3.7-7.6,5.5-15.7,5.5-24.5s-1.8-17-5.5-24.5c-3.7-7.6-9.3-13.8-16.9-18.7s-16.9-7.4-27.9-7.4h-144.2c-17.2-.4-33.2-4-48.2-10.7-14.9-6.8-28-15.9-39.3-27.3-11.3-11.4-20-24.9-26.4-40.2-6.4-15.3-9.5-31.6-9.5-48.8s3.3-34.1,9.8-49.4c6.5-15.3,15.5-28.7,27-40.2,11.5-11.5,24.9-20.5,40.2-27,15.3-6.5,31.8-9.8,49.4-9.8h226.4Z"/>
  </g>
  <g>
    <path class="cls-1" d="M1342.5,220.4v33.3c0-11.5,0-22.4,0-33.3Z"/>
    <polygon class="cls-1" points="1342.5 12.9 1272.8 12.9 1342.5 13.3 1342.5 12.9"/>
    <path class="cls-1" d="M1342.5,220.4v-9.1c0,.3,0,.6,0,.9,0,2.7,0,5.4,0,8.2Z"/>
    <path class="cls-1" d="M1344.7,280.2c2.7-4.5,6-8.3,8.4-13,1.7-3.2,3.7-8.4,2.9-11.2-1.2-4.3-5.3-3.2-8.4-2.8-1.8.3-3.6.4-5,.5v-33.3c0-2.7,0-5.4,0-8.2,0-.3,0-.6,0-.9V13.3l-69.7-.4h-.9v219.1c-4.5,5-8.7,10.5-11.9,17.3-1.3,2.7-2.7,7.2-1.9,9.5.7,2.2,4.2,3,6.5,3.4,2.4.4,4.9-.3,7.6-.6v28.3c13.1-11,26.8-17.5,41.5-22.3-10.2,9.4-19.8,18.2-29.3,27.2-8.4,8-16.6,16.5-23,27.9-1.3,2.3-2.6,4.7-3.4,7.4-1.3,4.6,0,7.5,3.5,7.8,2.7.2,5.4-.4,8.1-.4.9,0,2.3.6,2.6,1.5,2.1,5.8,4,11.7,5.8,17.6.9,2.9,1.7,3.7,4,2.3,6.9-4.2,13.9-8.1,20.9-11.8,3.9-2,8-3.4,12-5,0,.4.2.8.2,1.1-3.2,2.7-6.4,5.2-9.5,8.1-10,9.3-20.6,17.5-29,29.9-2.4,3.5-4.4,7.8-6.1,12.1-1.1,2.8-.2,5.6,2.3,5.5,3.5-.2,7-.9,10.4-1.6,2.3-.5,4.5-1.4,6.7-1.8.6-.1,1.5.9,1.8,1.7,2.1,6.1,4,12.3,6,18.5,3.2,9.9,6.5,19.9,10.1,30.6.8-2.2,1.4-3.5,1.9-4.9,8.3-25.9,16.5-51.9,24.9-77.7.9-2.9,2.5-5.4,4.1-7.7,3.6-5.2,7.4-9.9,11-15.1,1.2-1.7,2.1-4.1,2.7-6.4,1-4.1.1-5.8-3-6-2.4-.2-4.9,0-7,0,0-14.3,0-28,0-41.7,0-2.1,1-4.6,2.1-6.3Z"/>
  </g>
</svg>