<?xml version="1.0" encoding="utf-8"?>
<!-- Generator: Adobe Illustrator 27.4.0, SVG Export Plug-In . SVG Version: 6.00 Build 0)  -->
<svg version="1.1" id="Layer_1" xmlns="http://www.w3.org/2000/svg" xmlns:xlink="http://www.w3.org/1999/xlink" x="0px" y="0px"
	 viewBox="0 0 1366 455.06" style="enable-background:new 0 0 1366 455.06;" xml:space="preserve">
<g>
	<g>
		<path d="M1200.57,442.75h-76.09V138.38c0-15.96-1.64-28.74-4.91-38.36c-3.28-9.61-10.23-14.42-20.87-14.42
			c-8.59,0-16.98,2.97-25.16,8.9c-8.19,5.94-15.76,12.99-22.71,21.17c-6.96,8.19-13.19,16.57-18.72,25.16
			c-5.52,8.59-10.12,15.75-13.81,21.48L836.67,442.75h-90.82l181.64-280.44c15.54-24.13,30.17-45.72,43.88-64.74
			c13.7-19.02,27.61-35.07,41.73-48.17c14.11-13.09,29.24-23.01,45.41-29.76c16.16-6.75,34.67-10.12,55.54-10.12
			c25.77,0,46.64,11.26,62.59,33.75c15.96,22.51,23.93,54.21,23.93,95.12V442.75z"/>
		<path d="M465.83,13.19h76.09v303.76c0,16.37,1.63,29.25,4.91,38.66c3.27,9.42,10.22,14.12,20.87,14.12
			c8.59,0,16.97-2.86,25.16-8.59c8.18-5.72,15.74-12.68,22.71-20.87c6.95-8.18,13.19-16.66,18.72-25.47
			c5.52-8.79,10.12-16.05,13.81-21.78L829.73,13.19h90.82L738.91,293.02c-15.55,24.14-30.17,45.72-43.88,64.74
			c-13.71,19.02-27.61,35.08-41.73,48.17c-14.12,13.1-29.25,23.01-45.41,29.76c-16.17,6.75-34.67,10.12-55.54,10.12
			c-25.77,0-46.64-11.25-62.59-33.75c-15.96-22.49-23.93-54.2-23.93-95.12V13.19z"/>
		<path d="M362.38,11.96v76.09H135.94c-11.05,0-20.25,2.45-27.62,7.36c-7.36,4.91-12.89,11.15-16.57,18.72
			c-3.68,7.57-5.52,15.75-5.52,24.55c0,8.8,1.84,16.98,5.52,24.55c3.68,7.58,9.21,13.81,16.57,18.72
			c7.36,4.91,16.57,7.36,27.62,7.36h141.14c17.58,0,34.06,3.28,49.4,9.82c15.34,6.55,28.74,15.55,40.19,27
			c11.45,11.46,20.56,24.85,27.31,40.2c6.75,15.34,10.12,31.81,10.12,49.4c0,17.59-3.37,34.06-10.12,49.4s-15.86,28.75-27.31,40.2
			c-11.46,11.46-24.85,20.56-40.19,27.31c-15.34,6.75-31.82,10.12-49.4,10.12H38.98v-76.09h238.1c11.04,0,20.34-2.46,27.92-7.36
			c7.57-4.91,13.19-11.14,16.88-18.72c3.68-7.56,5.52-15.74,5.52-24.55c0-8.79-1.84-16.97-5.52-24.55
			c-3.68-7.57-9.31-13.81-16.88-18.72c-7.57-4.91-16.87-7.36-27.92-7.36H132.87c-17.18-0.4-33.24-3.99-48.17-10.74
			c-14.94-6.75-28.03-15.85-39.27-27.31c-11.26-11.45-20.05-24.85-26.39-40.2c-6.35-15.34-9.51-31.6-9.51-48.79
			c0-17.59,3.27-34.06,9.82-49.4c6.54-15.34,15.54-28.74,27-40.19c11.45-11.45,24.86-20.45,40.2-27c15.34-6.54,31.8-9.82,49.4-9.82
			H362.38z"/>
	</g>
	<g>
		<path d="M1342.53,220.42v33.28C1342.53,242.24,1342.57,231.28,1342.53,220.42z"/>
		<polygon points="1342.53,12.88 1272.8,12.88 1342.53,13.32 		"/>
		<path d="M1342.53,220.42v-9.05c-0.01,0.3-0.05,0.57-0.05,0.89C1342.51,214.98,1342.52,217.7,1342.53,220.42z"/>
		<path d="M1344.71,280.23c2.72-4.46,6.03-8.26,8.45-13c1.65-3.23,3.66-8.41,2.87-11.25c-1.22-4.33-5.32-3.23-8.45-2.78
			c-1.78,0.26-3.58,0.36-5.04,0.49v-33.28c-0.01-2.72-0.02-5.45-0.05-8.16c0-0.32,0.04-0.59,0.05-0.89V13.32l-69.74-0.44h-0.86
			v58.55v37.43v39.5v38.02v45.58c-4.47,5.01-8.65,10.46-11.86,17.3c-1.28,2.73-2.67,7.21-1.91,9.47c0.73,2.16,4.15,3.01,6.48,3.44
			c2.39,0.44,4.89-0.32,7.62-0.59c0,9.4,0,18.29,0,28.28c13.13-10.99,26.83-17.47,41.54-22.3c-10.18,9.44-19.8,18.2-29.31,27.22
			c-8.43,7.99-16.61,16.46-22.97,27.85c-1.28,2.29-2.61,4.71-3.36,7.38c-1.31,4.64,0,7.53,3.5,7.83c2.68,0.23,5.39-0.43,8.08-0.4
			c0.9,0.01,2.28,0.6,2.61,1.51c2.07,5.78,3.98,11.67,5.78,17.63c0.86,2.86,1.74,3.7,3.99,2.34c6.91-4.16,13.89-8.11,20.93-11.78
			c3.92-2.04,8.02-3.37,12.04-5.03c0.08,0.38,0.17,0.75,0.25,1.13c-3.18,2.68-6.43,5.18-9.51,8.06
			c-10.01,9.33-20.64,17.53-29.04,29.89c-2.41,3.55-4.36,7.84-6.08,12.15c-1.1,2.76-0.25,5.59,2.31,5.47
			c3.48-0.16,6.96-0.9,10.42-1.6c2.26-0.46,4.48-1.41,6.74-1.83c0.55-0.1,1.51,0.86,1.79,1.67c2.06,6.11,3.96,12.33,5.97,18.48
			c3.25,9.94,6.54,19.85,10.08,30.59c0.83-2.18,1.42-3.52,1.88-4.94c8.3-25.91,16.54-51.85,24.93-77.7
			c0.92-2.85,2.49-5.42,4.06-7.69c3.58-5.16,7.43-9.93,10.99-15.11c1.19-1.73,2.1-4.08,2.66-6.38c1.01-4.11,0.12-5.8-2.99-6.04
			c-2.45-0.19-4.92-0.04-7.03-0.04c0-14.34-0.09-28.04,0.1-41.74C1342.65,284.36,1343.67,281.93,1344.71,280.23z"/>
	</g>
</g>
</svg>
